<svg version="1" xmlns="http://www.w3.org/2000/svg" width="933.333" height="933.333" viewBox="0 0 700.000000 700.000000"><path d="M337 1.6c-18.2 4.7-33.6 19.1-39.1 36.4-2.3 7.1-3.2 19.6-1.9 25.3l.8 3.6-7.2 3.7c-3.9 2-10.7 5.6-15.1 7.9-4.4 2.3-15.6 8.2-25 13-9.3 4.8-19.7 10.2-23 12-3.3 1.8-14.5 7.6-25 13-10.4 5.4-22.1 11.4-26 13.5-3.8 2-14.4 7.6-23.5 12.3l-16.5 8.5-4.9-4.4c-5.6-5.1-16.7-10.7-24.4-12.3-26.9-5.6-54.5 10.4-63.3 36.7-2.7 7.9-3.1 22.7-1 30.7 2 7.3 7.5 17.3 12.4 22.6 5.3 5.8 14.1 12 20.4 14.4 2.6 1 5.2 2.1 5.6 2.5.6.5 1.2 161.6.7 213.6v5.1l-4.6 1.3c-12.8 3.6-27.1 17.7-32.5 31.9-4.3 11.6-4.7 24.5-1 36.1 5.3 17 21 32 38 36.5 7 1.8 20.7 1.8 27.6 0 7.6-2 18.3-7.8 23.5-12.7 2.8-2.7 4.5-3.6 5.3-3 .7.5 8.4 4.7 17.2 9.2 8.8 4.5 20.1 10.4 25 13 5 2.6 15.3 8 23 12 7.7 4 18.5 9.6 24 12.5 5.5 2.9 17.7 9.2 27 14 9.4 4.8 19.3 10 22 11.5 2.8 1.5 8.7 4.6 13.1 6.9l8.2 4.2-.8 3.5c-1.5 6.3-.4 18.4 2.2 26 6.1 17.5 19.2 29.8 37.5 35.3 9.2 2.8 23.6 2.3 32.3-1.2 10.5-4.1 13-5.6 20-12.6 10.8-10.7 16-22.4 16.5-37 .1-4.6-.1-9.7-.5-11.2-.8-2.8-.6-3 7.3-7 4.5-2.3 11.4-5.8 15.2-7.9 3.9-2 13.8-7.2 22-11.5 8.3-4.3 18.6-9.7 23-12 4.4-2.3 15.2-7.9 24-12.5 8.8-4.5 19.2-9.9 23-12 3.9-2.1 15.8-8.3 26.6-13.8l19.6-10.1 3.3 3.4c8.7 9 23.4 14.7 37.5 14.6 28.8-.2 52.7-23.3 54-52.1.7-18-7.6-35.9-21.5-46.2-5.2-3.8-12.2-7.5-15.8-8.3-2.9-.6-3.2-1-3.3-4.3V347c-.1-87.4.1-105.6 1.3-106.2.7-.3 4.8-2.3 9.1-4.4 19-9 30.9-29 30.2-50.5-1.3-38.6-41.2-63.8-76.5-48.2-5.5 2.4-15.8 9.6-17.3 12-.6 1-5.1-.9-19.5-8.3-10.3-5.3-20.9-10.9-23.7-12.4-2.7-1.5-12.2-6.4-21-11-8.8-4.5-21.1-10.9-27.2-14.1-6.2-3.3-16.4-8.5-22.5-11.8-6.2-3.2-18-9.3-26.3-13.6-8.2-4.3-16.3-8.5-18-9.4-3.8-1.9-4.5-2.9-3.5-5.5.8-2.2.5-16.3-.5-20.9-2.8-13.3-13.6-28-25.6-35C366.5 1 349.3-1.5 337 1.6zM361.4 30c18.8 8.9 21.4 34 4.8 46.7-5.5 4.1-11.1 5.7-18.9 5-23.9-1.9-33.1-31.7-14.8-48 7.1-6.4 19.8-8 28.9-3.7zm-45.9 67.2c4.5 4.2 16.2 9.7 23.5 11.2 11.6 2.4 25.2.6 35.5-4.6 4.6-2.4 14.5-9.9 14.5-11 0-1.9 4-.4 15.8 5.8 7 3.6 20.1 10.4 29.2 15.1 9.1 4.7 20.1 10.5 24.5 12.8 4.4 2.3 20.6 10.8 36 18.8 15.4 8 34.5 17.9 42.5 22.1 8.8 4.6 14.4 8.1 14.2 8.8-.9 3.3-.9 15.9 0 20.7 3.5 19.4 16.5 35.1 34.8 42.1l5.5 2.1V459l-6.4 2.5c-22.8 9.2-35.8 30.2-34.5 55.5l.5 8.5-3.3 1.6c-3.4 1.5-28.9 14.7-43.3 22.4-4.4 2.3-15.6 8.2-25 13-9.3 4.8-21.5 11.1-27 14-5.5 2.9-15.2 7.9-21.5 11.2-32.6 17-37.6 19.7-38.5 20.4-.6.4-3.2-1.1-6-3.6-14.9-13.4-37.1-17.6-55.4-10.6-6.9 2.6-12.7 6.1-18.1 10.9-2.6 2.4-4.9 3.7-5.5 3.3-.5-.5-7.3-4.1-15-8.1-13.3-6.9-23.9-12.4-44-23-4.9-2.6-16.2-8.4-25-13-8.8-4.5-20.5-10.6-26-13.5-8.9-4.7-25.7-13.4-43.1-22.4-6.2-3.2-6.2-3.2-5.4-6.7 1.3-5.5.3-18.4-1.9-25.5-3.1-9.8-10.9-21-19.1-27.1-4.3-3.3-15.3-8.8-17.4-8.8-.9 0-1.6-.6-1.7-1.3-.3-4.3-.3-215.5 0-217 .2-.9.9-1.7 1.6-1.7 2.1 0 10.7-4.1 15.5-7.4 9.5-6.4 17.7-17.7 21.3-29.1 1.7-5.6 2.1-9.2 2-18l-.1-11.1 13.1-6.7c7.3-3.7 17.7-9.2 23.2-12 5.5-2.9 19.5-10.2 31-16.2 11.6-5.9 23.3-12 26-13.5 2.8-1.5 12.2-6.4 21-11 35.6-18.4 43-22.3 43.9-23.1 1-.9 1.9-.3 8.1 5.3zm-211.2 64.7c14.5 5.6 21.9 22.7 15.9 36.4-2.7 6.2-10 13.1-15.9 15.1-13.5 4.6-27.6-1.2-33.9-14-7.3-15 .7-33 16.9-37.9 4.7-1.4 12.8-1.2 17 .4zm512.5 1.2c7.5 3.7 12.6 9.8 14.6 17.7 4.8 18-10 35.6-28.6 34-24.3-2.1-33.7-31.7-15.4-48.1 2.2-2 8.8-5.2 12.1-5.9 4.1-.9 13 .3 17.3 2.3zm-510 324.8c20.6 10.6 20.5 38.5-.1 49.3-5.8 3-17.5 3.1-23.2.1-14.3-7.4-19.8-23.2-12.9-36.9 3-5.9 8.6-11.1 14.6-13.5 6-2.4 16-1.9 21.6 1zm511.3.8c15.9 8.6 19 30.1 6.2 42.9-5.8 5.8-10.8 7.9-19.3 7.8-6.3 0-8.3-.4-12.7-2.8-7.4-4.1-12.3-10.8-14.1-19.1-.9-4.1-.9-5.1.3-11.5 1.7-8.8 9.4-16.8 19.5-20.1 4.7-1.6 14.7-.2 20.1 2.8zM358.2 619c7.5 2.1 16.8 11.8 18.4 19 3.6 17.3-7.8 33.1-24.7 34.3-20.6 1.5-35.6-20.2-26.5-38.6 6.1-12.5 19.3-18.4 32.8-14.7z"/><path d="M337.5 144.4c-4.4 2.3-16.1 8.4-26 13.6-9.9 5.1-21.6 11.2-26 13.5-4.4 2.3-14.3 7.5-22 11.5-7.7 4-18.9 9.8-25 13-14.1 7.3-32.2 16.8-50 26-15.6 8.1-18 9.9-19.4 14.4-.6 1.9-1 44.6-1 114.6.1 117.8-.1 114.1 4.5 118.1 1.1.9 10 5.8 19.9 10.9 9.9 5.1 22.7 11.7 28.5 14.8 5.8 3 15.5 8 21.5 11.2 15 7.9 31.3 16.3 48 25 7.7 4 20.3 10.5 28 14.5 7.7 4 17.1 8.9 21 10.9 8.6 4.5 12.2 4.5 20 .5 13-6.7 39.5-20.4 48-24.9 5-2.6 16.2-8.5 25-13s19.6-10.2 24-12.5c4.4-2.3 14.3-7.5 22-11.5 52.3-27.1 49-25.2 51.3-29.3 1.5-2.9 1.7-7.4 1.7-46.7 0-40.4-.1-43.7-1.8-46.2-4.1-6-10.5-7.9-17.2-4.9-7.9 3.5-7.9 3.3-8 45.3 0 22.9-.4 37.1-1 37.7-1 .9-5.9 3.5-37.5 19.8-30 15.6-41.8 21.7-50.5 26.3-4.9 2.6-16.6 8.7-26 13.5-9.3 4.9-18.9 9.9-21.2 11.1-2.7 1.4-4.3 1.8-4.4 1.1-.4-5.3-.3-185.1.1-185.7.3-.4 6.4-3.8 13.5-7.5 22.6-11.7 36.6-19 50-26 7.2-3.7 18-9.3 24-12.5 6.1-3.2 17.1-8.9 24.5-12.7 26.5-13.8 41.6-21.7 46.4-24.3 7.9-4.2 10.9-12.6 7.2-19.8-2-3.9-2.8-4.4-42.1-24.7-14.7-7.6-26.8-13.9-49-25.5-6-3.2-17.3-9-25-13-7.7-4-18.5-9.6-24-12.5-41.3-21.7-39-21.1-52-14.1zm15.1 25.5c.5.4 8.6 4.8 17.9 9.6 9.4 4.8 21.1 10.9 26 13.5 5 2.6 15.8 8.2 24 12.5 8.3 4.3 19.1 9.9 24 12.5 5 2.6 16.2 8.5 25 13 8.8 4.6 16.6 8.8 17.3 9.3 1 .8.1 1.6-3.5 3.4-2.6 1.4-12 6.2-20.8 10.8-8.8 4.5-22.3 11.5-30 15.5-7.7 4-17.1 8.9-21 11-3.8 2.1-14.6 7.7-24 12.5-9.3 4.8-21.6 11.2-27.2 14.2l-10.2 5.4-8.8-4.7c-4.8-2.5-9.2-4.9-9.8-5.2-.5-.4-1.2-.7-1.5-.7-.3 0-6.6-3.2-14-7.2-7.4-3.9-19.8-10.3-27.5-14.3-7.7-4-17.6-9.2-22-11.5-4.4-2.3-17.9-9.3-30-15.5-12.1-6.2-22.6-11.8-23.3-12.3-1.1-.8-.6-1.5 2-2.8 1.8-1 4-2.1 4.8-2.4 2-.9 3.3-1.5 12-6.2 6.9-3.7 12.5-6.6 46-24 6.3-3.3 18.7-9.8 27.5-14.4 48.8-25.4 45.2-23.7 47.1-22zM200 265.8c1.9 1 11.6 6.1 21.5 11.2s22.1 11.4 27 14c13.7 7.2 30.3 15.8 48 25 21.5 11.1 38.9 20.2 39.4 20.7.5.4.8 185.4.3 186.5-.1.4-2.2-.3-4.5-1.6s-12.3-6.5-22.2-11.6c-9.9-5.1-21.1-10.9-25-13-6.6-3.5-15.3-8.1-50-26-26.9-13.9-37-19.3-38-20.2-1-.9-1.5-186.8-.5-186.8.3 0 2.1.8 4 1.8z"/><path d="M512.4 306c-2.9 1.1-7.4 6.7-7.5 9.3-.4 8.2 2.6 13.7 8.5 15.7 9.9 3.2 19.6-4.7 18-14.7-1.4-8.7-10.6-13.7-19-10.3z"/></svg>